<svg width="20" height="20" viewBox="0 0 20 20" fill="none" xmlns="http://www.w3.org/2000/svg">
    <path
        d="M11.9074 0.547034L11.9075 0.547048C12.0687 0.561479 12.1881 0.652782 12.2374 0.751228C12.2852 0.846526 12.2786 0.961328 12.2095 1.05792C11.1284 2.52188 10.5511 4.23872 10.5511 6.01962C10.5511 10.6012 14.2743 14.3515 19.1363 14.7971L19.1374 14.7972C19.2986 14.8116 19.4179 14.9029 19.4673 15.0013L19.4672 15.0013L19.4703 15.0072C19.5154 15.0944 19.5119 15.2067 19.4393 15.3081C17.5061 17.9261 14.3048 19.5 10.8603 19.5C5.10535 19.5 0.5 15.1988 0.5 10C0.5 4.80132 5.10965 0.5 10.8603 0.5C11.2092 0.5 11.5582 0.515672 11.9074 0.547034Z"
        stroke="white" />
</svg>