<svg width="14" height="14" viewBox="0 0 14 14" fill="none" xmlns="http://www.w3.org/2000/svg">
<path fill-rule="evenodd" clip-rule="evenodd" d="M8.0294 6.33943V6.3204C8.02551 6.32678 8.02013 6.33317 8.01675 6.33943H8.0294Z" fill="white"/>
<path fill-rule="evenodd" clip-rule="evenodd" d="M0.976807 0.490417V13.5137H14.0001V0.490417H0.976807ZM5.02753 11.3098H3.09533V5.49667H5.02753V11.3098ZM4.06143 4.70325H4.04866C3.40051 4.70325 2.98038 4.25671 2.98038 3.69857C2.98038 3.12818 3.41278 2.6943 4.07408 2.6943C4.73552 2.6943 5.14199 3.12818 5.15464 3.69857C5.15464 4.25671 4.73552 4.70325 4.06143 4.70325ZM11.9965 11.3098H10.0638V8.19976C10.0638 7.41862 9.78453 6.88541 9.08503 6.88541C8.55082 6.88541 8.23336 7.24442 8.09351 7.59218C8.04268 7.71641 8.0294 7.88909 8.0294 8.06328V11.3098H6.09632C6.09632 11.3098 6.12222 6.04205 6.09632 5.4967H8.0294L8.0294 6.3204C8.28623 5.92521 8.74456 5.36023 9.77125 5.36023C11.0432 5.36023 11.9965 6.19085 11.9965 7.97627V11.3098Z" fill="white"/>
</svg>
